<?xml version="1.0" encoding="UTF-8" standalone="no"?>
<!-- Created with Inkscape (http://www.inkscape.org/) -->

<svg
   width="112.72517mm"
   height="38.171722mm"
   viewBox="0 0 112.72517 38.171722"
   version="1.1"
   id="svg5"
   xmlns:inkscape="http://www.inkscape.org/namespaces/inkscape"
   xmlns:sodipodi="http://sodipodi.sourceforge.net/DTD/sodipodi-0.dtd"
   xmlns="http://www.w3.org/2000/svg"
   xmlns:svg="http://www.w3.org/2000/svg">
  <sodipodi:namedview
     id="namedview7"
     pagecolor="#ffffff"
     bordercolor="#000000"
     borderopacity="0.25"
     inkscape:showpageshadow="2"
     inkscape:pageopacity="0.0"
     inkscape:pagecheckerboard="0"
     inkscape:deskcolor="#d1d1d1"
     inkscape:document-units="mm"
     showgrid="false" />
  <defs
     id="defs2" />
  <g
     inkscape:label="Calque 1"
     inkscape:groupmode="layer"
     id="layer1"
     transform="translate(-13.673378,-20.218931)">
    <g
       aria-label="fault"
       id="text507"
       style="font-weight:500;font-size:50.8px;font-family:Lexend;-inkscape-font-specification:'Lexend Medium';stroke-width:0.264583"
       transform="translate(-75.215167,-15.95161)"
       inkscape:export-filename="fault.svg"
       inkscape:export-xdpi="96"
       inkscape:export-ydpi="96">
      <path
         d="m 93.054145,73.810936 c 0.04326,-10.113741 -0.0873,-20.233671 0.06667,-30.343475 0.365726,-5.723696 7.342025,-9.055633 12.223755,-6.330949 2.97743,0.699875 0.86456,3.042646 0.34094,4.79161 -0.50848,2.790638 -4.66726,-2.284852 -6.02737,1.352014 -0.630735,3.709607 -0.158688,7.560738 -0.3048,11.331965 0,6.399612 0,12.799223 0,19.198835 -2.099733,0 -4.199467,0 -6.2992,0 z m -4.1656,-20.7264 c 0,-1.8288 0,-3.6576 0,-5.4864 5.503332,0 11.006663,0 16.509995,0 0,1.8288 0,3.6576 0,5.4864 -5.503332,0 -11.006663,0 -16.509995,0 z"
         id="path509" />
      <path
         d="m 119.6733,74.318936 c -7.77389,0.07052 -12.80064,-8.305143 -11.88085,-15.444589 0.17137,-6.980019 6.57922,-13.466017 13.76124,-12.308086 3.57829,-0.517691 9.7359,5.77401 7.51056,7.295379 -1.00306,-0.727395 -0.18455,-2.864321 -0.45015,-4.162358 -0.0194,-1.461377 -0.46777,-3.351643 1.66586,-2.659946 1.54444,0 3.08889,0 4.63334,0 0,8.923867 0,17.847733 0,26.7716 -2.11667,0 -4.23333,0 -6.35,0 0,-2.1336 0,-4.2672 0,-6.4008 3.62975,-0.961103 -1.43354,4.776942 -2.89242,5.184775 -1.80786,1.07095 -3.88095,1.75387 -5.99758,1.724025 z m 1.7272,-5.5372 c 4.97119,0.245909 8.12575,-5.116578 7.35647,-9.617075 -0.17814,-4.4048 -4.51831,-8.128261 -8.92333,-6.996906 -7.5113,1.544138 -7.7512,14.263777 -0.49054,16.347281 0.6689,0.185147 1.36411,0.266985 2.0574,0.2667 z"
         id="path511" />
      <path
         d="m 150.9661,74.318936 c -5.11729,0.391261 -9.28895,-4.200053 -9.32815,-9.15035 -0.15318,-6.039522 -0.0304,-12.086618 -0.0699,-18.12925 2.0828,0 4.1656,0 6.2484,0 0.0908,5.721337 -0.1933,11.464243 0.1651,17.1704 0.35442,5.219525 7.92698,6.406472 10.5156,2.2733 1.7084,-2.972482 0.75224,-6.544988 1.0033,-9.81635 0,-3.209117 0,-6.418233 0,-9.62735 2.0828,0 4.1656,0 6.2484,0 0,8.923867 0,17.847733 0,26.7716 -2.032,0 -4.064,0 -6.096,0 -0.0339,-1.862667 -0.0677,-3.725333 -0.1016,-5.588 2.71302,-1.460043 -1.52522,4.1525 -2.96148,4.468019 -1.66154,1.086052 -3.64273,1.637795 -5.62372,1.627981 z"
         id="path513" />
      <path
         d="m 173.1149,73.810936 c 0,-12.530666 0,-25.061333 0,-37.591999 2.09973,0 4.19947,0 6.2992,0 0,12.530666 0,25.061333 0,37.591999 -2.09973,0 -4.19947,0 -6.2992,0 z"
         id="path515" />
      <path
         d="m 189.52332,73.810936 c 0,-11.192933 0,-22.385867 0,-33.5788 2.0828,0 4.1656,0 6.2484,0 0,11.192933 0,22.385867 0,33.5788 -2.0828,0 -4.1656,0 -6.2484,0 z m -5.2832,-20.9804 c 0,-1.9304 0,-3.8608 0,-5.7912 5.7912,0 11.5824,0 17.3736,0 0,1.9304 0,3.8608 0,5.7912 -5.7912,0 -11.5824,0 -17.3736,0 z"
         id="path517" />
    </g>
  </g>
</svg>
