<svg xmlns="http://www.w3.org/2000/svg" data-name="Calque 1" viewBox="0 0 455 167">
  <path d="M184.99 111.31c0 7.36-1.87 13.01-5.6 16.94-3.73 3.93-8.78 5.9-15.15 5.9-4.74 0-8.74-1.09-11.99-3.27a83.84 83.84 0 0 1-10.97 12.87c.64.4 1.31.79 1.99 1.15 5.12 2.69 10.92 4.03 17.39 4.03 4.87 0 9.48-.97 13.81-2.91 4.33-1.94 7.84-4.6 10.52-7.99v9.7h17.02V65.49h-17.02v45.82Zm95.53-42.09c-6.07-3.38-12.99-5.07-20.75-5.07s-15.2 1.74-21.42 5.22c-6.22 3.48-11.05 8.43-14.48 14.85-3.43 6.42-5.15 13.86-5.15 22.31s1.77 15.9 5.3 22.32 8.41 11.4 14.63 14.93c6.22 3.53 13.26 5.3 21.12 5.3 9.65 0 17.74-2.41 24.25-7.24 6.52-4.82 11.02-11.02 13.51-18.58h-18.36c-3.78 7.66-10.25 11.49-19.4 11.49-6.37 0-11.74-1.99-16.12-5.97-4.38-3.98-6.82-9.25-7.31-15.82h62.84c.4-2.49.6-5.27.6-8.36 0-7.96-1.69-15-5.07-21.12-3.38-6.12-8.11-10.87-14.18-14.25Zm-44.04 30c.8-6.37 3.28-11.42 7.46-15.15s9.2-5.6 15.08-5.6c6.47 0 11.89 1.89 16.27 5.67 4.38 3.78 6.62 8.81 6.72 15.08h-45.53Zm137.47 12.09c0 7.36-1.87 13.01-5.6 16.94-3.73 3.93-8.78 5.9-15.15 5.9s-11.39-1.96-15.08-5.9c-3.68-3.93-5.52-9.58-5.52-16.94V65.49h-16.87v48.36c0 7.46 1.47 13.83 4.4 19.11 2.93 5.28 6.96 9.25 12.09 11.94 5.12 2.69 10.92 4.03 17.39 4.03 4.87 0 9.48-.97 13.81-2.91 4.33-1.94 7.84-4.6 10.52-7.99v9.7h17.02V65.49h-17.02v45.82Zm66.35-43.66c-4.13 2.34-7.44 5.6-9.93 9.78V65.49h-17.02v82.24h17.02v-43.29c0-8.36 1.72-14.23 5.15-17.61 3.43-3.38 8.48-5.07 15.15-5.07H455V64.15c-5.67 0-10.57 1.17-14.7 3.51Z" style="fill:#191919"/>
  <path d="M131.18 132.95c-2.94-5.27-4.4-11.64-4.4-19.11V65.48h16.87v45.82c0 7.36 1.84 13.01 5.52 16.94.94 1 1.97 1.87 3.08 2.62C161.54 117.4 167 101.08 167 83.49 167 37.38 129.62 0 83.5 0S0 37.38 0 83.5 37.38 167 83.5 167c22.43 0 42.78-8.86 57.78-23.26-4.19-2.63-7.56-6.22-10.1-10.79Zm-17.83 14.78H61.26V43.99h17.02V134h35.08v13.73Z" style="fill:#ff8806"/>
</svg>
