<svg xmlns="http://www.w3.org/2000/svg" viewBox="0 0 455 167">
  <path d="M185 111.3c0 7.4-1.9 13-5.6 16.9-3.7 3.9-8.8 5.9-15.2 5.9s-8.7-1.1-12-3.3c-3.2 4.7-6.9 9-11 12.9.6.4 1.3.8 2 1.1 5.1 2.7 10.9 4 17.4 4s9.5-1 13.8-2.9c4.3-1.9 7.8-4.6 10.5-8v9.7h17V65.4h-17v45.8Zm95.5-42.1c-6.1-3.4-13-5.1-20.7-5.1s-15.2 1.7-21.4 5.2c-6.2 3.5-11 8.4-14.5 14.9-3.4 6.4-5.1 13.9-5.1 22.3s1.8 15.9 5.3 22.3 8.4 11.4 14.6 14.9c6.2 3.5 13.3 5.3 21.1 5.3s17.7-2.4 24.3-7.2c6.5-4.8 11-11 13.5-18.6h-18.4c-3.8 7.7-10.2 11.5-19.4 11.5s-11.7-2-16.1-6c-4.4-4-6.8-9.3-7.3-15.8h62.8c.4-2.5.6-5.3.6-8.4 0-8-1.7-15-5.1-21.1-3.4-6.1-8.1-10.9-14.2-14.3Zm-44 30c.8-6.4 3.3-11.4 7.5-15.2s9.2-5.6 15.1-5.6 11.9 1.9 16.3 5.7c4.4 3.8 6.6 8.8 6.7 15.1h-45.5ZM374 111.3c0 7.4-1.9 13-5.6 16.9-3.7 3.9-8.8 5.9-15.2 5.9s-11.4-2-15.1-5.9c-3.7-3.9-5.5-9.6-5.5-16.9V65.5h-16.9v48.4c0 7.5 1.5 13.8 4.4 19.1 2.9 5.3 7 9.3 12.1 11.9 5.1 2.7 10.9 4 17.4 4s9.5-1 13.8-2.9c4.3-1.9 7.8-4.6 10.5-8v9.7h17V65.5h-17v45.8Zm66.3-43.7c-4.1 2.3-7.4 5.6-9.9 9.8V65.5h-17v82.2h17v-43.3c0-8.4 1.7-14.2 5.1-17.6 3.4-3.4 8.5-5.1 15.1-5.1h4.3V64.1c-5.7 0-10.6 1.2-14.7 3.5Z" style="fill:#191919"/>
  <circle cx="83.5" cy="83.5" r="83.5" style="fill:#fff"/>
  <path d="M131.2 133c-2.9-5.3-4.4-11.6-4.4-19.1V65.5h16.9v45.8c0 7.4 1.8 13 5.5 16.9.9 1 2 1.9 3.1 2.6 9.3-13.5 14.7-29.8 14.7-47.4C167 37.4 129.6 0 83.5 0S0 37.4 0 83.5 37.4 167 83.5 167s42.8-8.9 57.8-23.3c-4.2-2.6-7.6-6.2-10.1-10.8Zm-17.9 14.7H61.2V44h17v90h35.1v13.7Z" style="fill:#ff8806"/>
</svg>
