<svg xmlns="http://www.w3.org/2000/svg" viewBox="0 0 32 40">
  <path d="M26 9.6a3.5 3.5 0 0 0-3.5 3.5v5.5h-3v-5.5a3.5 3.5 0 0 0-7 0v5.5h-3v-5.5a3.5 3.5 0 0 0-7 0v6.5a1 1 0 0 0 1 1h4v1.5a3.5 3.5 0 0 0 7 0v-1.5h3v1.5a3.5 3.5 0 0 0 7 0v-1.5h4a1 1 0 0 0 1-1v-6.5A3.5 3.5 0 0 0 26 9.6Zm-1.5 6v-2.5a1.5 1.5 0 0 1 3 0v5.5h-3Zm-10 0v-2.5a1.5 1.5 0 0 1 3 0v5.5h-3Zm-8.5-4a1.5 1.5 0 0 1 1.5 1.5v5.5h-3v-5.5A1.5 1.5 0 0 1 6 11.6Zm5 12a1.5 1.5 0 0 1-1.5-1.5v-1.5h3v1.5a1.5 1.5 0 0 1-1.5 1.5Zm10 0a1.5 1.5 0 0 1-1.5-1.5v-1.5h3v1.5a1.5 1.5 0 0 1-1.5 1.5ZM16 8.66a2.66 2.66 0 0 0 0-5.32 2.66 2.66 0 0 0 0 5.32Zm0-3.32a.66.66 0 0 1 0 1.32.66.66 0 0 1 0-1.32Zm10 3.32a2.66 2.66 0 0 0 0-5.32 2.66 2.66 0 0 0 0 5.32Zm0-3.32a.66.66 0 0 1 0 1.32.66.66 0 0 1 0-1.32ZM6 8.66a2.66 2.66 0 0 0 0-5.32 2.66 2.66 0 0 0 0 5.32Zm0-3.32a.66.66 0 0 1 0 1.32.66.66 0 0 1 0-1.32Zm8 22.32a1 1 0 0 1-1 1H9a1 1 0 1 1 0-2h4a1 1 0 0 1 1 1Zm10 0a1 1 0 0 1-1 1h-4a1 1 0 0 1 0-2h4a1 1 0 0 1 1 1Z" data-name="abstrack"/>
</svg>
