<svg xmlns="http://www.w3.org/2000/svg" viewBox="0 0 128 128">
  <rect width="128" height="128" rx="10.82" ry="10.82" style="fill:#070708"/>
  <path d="M34.36 106V22H64.6c4.96 0 9.38 1.12 13.26 3.36 3.88 2.24 6.94 5.26 9.18 9.06 2.24 3.8 3.36 8.1 3.36 12.9s-1.06 9-3.18 12.6c-2.12 3.6-5.04 6.42-8.76 8.46-3.72 2.04-7.94 3.06-12.66 3.06H40.36V106h-6Zm6-40.56h26.16c3.44 0 6.48-.76 9.12-2.28 2.64-1.52 4.7-3.64 6.18-6.36 1.48-2.72 2.22-5.8 2.22-9.24 0-3.76-.84-7.12-2.52-10.08-1.68-2.96-4.02-5.28-7.02-6.96-3-1.68-6.42-2.52-10.26-2.52H40.36v37.44ZM86.68 106 65.8 69.88l5.04-3.12L93.64 106h-6.96Z" style="fill:#fff"/>
</svg>
