<svg xmlns="http://www.w3.org/2000/svg" data-name="Calque 1" viewBox="0 0 132.99 104.88">
  <path d="M111.37 13.81a77.77 77.77 0 0 1 18.52 75.55L55.2 67.68l56.17-53.87Z" style="fill:#feb41c"/>
  <path d="M74.1 2.68a67.443 67.443 0 0 1 29.95 18.14L55.2 67.68 39.09 1.98a67.493 67.493 0 0 1 35.01.7Z" style="fill:#5e7c88"/>
  <path d="M41.51 11.79 55.2 67.68 0 51.62a57.46 57.46 0 0 1 41.51-39.83Z" style="fill:#4b5f6d"/>
  <path d="M9.74 54.41 55.2 67.68l-34.18 32.76A47.327 47.327 0 0 1 9.74 54.41Z" style="fill:#363f45"/>
  <path d="m55.2 67.68 8.86 36.14a37.275 37.275 0 0 1-35.72-10.39L55.2 67.68Z" style="fill:#24221f"/>
</svg>
