<svg xmlns="http://www.w3.org/2000/svg" data-name="Calque 1" viewBox="0 0 68.89 51.51">
  <path d="M42.6 50.55c.09.54-.18.81-.81.81H30.45c-.6 0-1.15-.34-1.43-.88L.19 1.24C.1 1.08.05.91.02.73-.07.24.21 0 .84 0h11.27c.63-.03 1.21.32 1.47.89l28.87 49.22c.07.14.12.29.15.44Z" style="fill:#fc1d90"/>
  <path d="M68.75 50.19 59.58 30.8a.341.341 0 0 1 .21-.51 13.73 13.73 0 0 0 6.47-5.33 15.32 15.32 0 0 0 2.34-8.48c.08-2.98-.61-5.92-2-8.56a14.56 14.56 0 0 0-5.78-5.76A17.675 17.675 0 0 0 52.19.1H30.25c-.3-.02-.59.09-.8.3-.2.22-.3.51-.28.8v20.43l10.24 17.48h3.33v-7c-.02-.18.1-.34.27-.36h3.1c.19 0 .36.11.43.29l8 18.66c.17.52.68.85 1.23.8h12.11c.26.01.51-.07.72-.22.19-.13.3-.35.29-.58-.03-.17-.08-.34-.14-.51Zm-15.1-30.22a5.393 5.393 0 0 1-3.75 1.28h-6.79a.325.325 0 0 1-.37-.26v-8.7c-.02-.18.1-.34.27-.36h6.89c1.37-.06 2.7.4 3.75 1.28.97.87 1.5 2.12 1.45 3.42.04 1.27-.49 2.5-1.45 3.34Z"/>
  <path d="M34.74 41.63a.91.91 0 0 0-.81.48l-4.25 7.92c-.07.15-.13.32-.15.49-.09.59.18.89.82.89h11.47c.65-.01 1.22-.4 1.47-1l4-7.44a.936.936 0 0 0-.38-1.26.877.877 0 0 0-.42-.11l-11.75.03Z" style="fill:#d70068;isolation:isolate;opacity:.8"/>
</svg>
